Coordinates
version=1
nRows=24
nColumns=22
inDegrees=yes

Units are S.I. units (second, meters, Newtons, ...)
If the header above contains a line with 'inDegrees', this indicates whether rotational values are in degrees (yes) or radians (no).

endheader
time	pelvis_tilt	pelvis_list	pelvis_rotation	pelvis_tx	pelvis_ty	pelvis_tz	hip_flexion_r	hip_adduction_r	hip_rotation_r	knee_angle_r	ankle_angle_r	subtalar_angle_r	hip_flexion_l	hip_adduction_l	hip_rotation_l	knee_angle_l	ankle_angle_l	subtalar_angle_l	lumbar_extension	lumbar_bending	lumbar_rotation
      0.01000000	      0.27234550	     -1.29360378	      2.54293751	     -0.70633364	      1.08350703	      1.20528467	     -2.63875738	      0.96230654	     -4.54772740	     -8.39336524	     11.80724313	     -1.99886862	     -2.02426041	     -1.18298653	     -1.17809790	    -10.24293594	     12.89351001	     -2.98537703	     -2.76924593	     -0.74638091	     -5.49236891
      0.02000000	      0.27353885	     -1.29514304	      2.53968323	     -0.70631210	      1.08350269	      1.20531441	     -2.64079137	      0.96548837	     -4.54761982	     -8.39440530	     11.80706283	     -1.99904644	     -2.02690660	     -1.18579052	     -1.17821033	    -10.24398876	     12.89402953	     -2.98582423	     -2.76345470	     -0.74969831	     -5.49392228
      0.03000000	      0.27505162	     -1.29686085	      2.53556461	     -0.70628214	      1.08349875	      1.20535145	     -2.64332093	      0.96915974	     -4.54773611	     -8.39533920	     11.80712734	     -1.99924886	     -2.03017071	     -1.18900726	     -1.17895267	    -10.24485029	     12.89468316	     -2.98633316	     -2.75571623	     -0.75380321	     -5.49650773
      0.04000000	      0.27660822	     -1.29870287	      2.53078772	     -0.70624369	      1.08349503	      1.20539036	     -2.64592462	      0.97292845	     -4.54780961	     -8.39632090	     11.80745281	     -1.99950344	     -2.03399509	     -1.19236819	     -1.18011336	    -10.24622976	     12.89547617	     -2.98692587	     -2.74719832	     -0.75796067	     -5.49970418
      0.05000000	      0.27891752	     -1.30056526	      2.52498662	     -0.70620069	      1.08349158	      1.20543383	     -2.64899317	      0.97711023	     -4.54762591	     -8.39810295	     11.80801876	     -1.99982394	     -2.03792850	     -1.19583693	     -1.18131084	    -10.24889484	     12.89642284	     -2.98762872	     -2.73796687	     -0.76227774	     -5.50326229
      0.06000000	      0.28052531	     -1.31182185	      2.51200685	     -0.70614921	      1.08348299	      1.20549122	     -2.65087931	      0.99150347	     -4.53545068	     -8.39925419	     11.81669249	     -2.00431717	     -2.04144279	     -1.21031770	     -1.20496524	    -10.25122425	     12.91110953	     -2.99567743	     -2.72552512	     -0.75306780	     -5.51466221
      0.07000000	      0.28536963	     -1.31314795	      2.50560903	     -0.70609957	      1.08348402	      1.20554233	     -2.65505643	      0.99532695	     -4.53437491	     -8.40437191	     11.81631517	     -2.00468646	     -2.04501276	     -1.21366985	     -1.20291935	    -10.26046643	     12.91138929	     -2.99633792	     -2.71639591	     -0.75889151	     -5.51484677
      0.08000000	      0.29641415	     -1.31829119	      2.49183586	     -0.70609653	      1.08348796	      1.20560346	     -2.65645761	      1.00309747	     -4.51957164	     -8.42190610	     11.81934732	     -2.00823276	     -2.04091284	     -1.22088076	     -1.20448792	    -10.29408221	     12.92116234	     -3.00180199	     -2.72399479	     -0.75879423	     -5.50563194
      0.09000000	      0.30457194	     -1.32802209	      2.47022348	     -0.70604837	      1.08348476	      1.20567943	     -2.65833940	      1.01584526	     -4.49570514	     -8.43596948	     11.82931582	     -2.01933400	     -2.04165479	     -1.23456317	     -1.24005512	    -10.31710366	     12.94899564	     -3.01447076	     -2.71737574	     -0.75320372	     -5.48889019
      0.10000000	      0.31065199	     -1.32866683	      2.46324429	     -0.70598913	      1.08348755	      1.20573403	     -2.66321474	      1.01902757	     -4.49408970	     -8.44316770	     11.82882360	     -2.01963790	     -2.04642287	     -1.23738545	     -1.23717241	    -10.32723797	     12.94855105	     -3.01467816	     -2.70614008	     -0.75904905	     -5.49034257
      0.11000000	      0.32331539	     -1.33034099	      2.44956014	     -0.70598249	      1.08349327	      1.20579685	     -2.66349287	      1.02275306	     -4.47849215	     -8.46730673	     11.83235233	     -2.02228324	     -2.04488280	     -1.24123698	     -1.23502225	    -10.35959494	     12.95435026	     -3.01652228	     -2.71249835	     -0.76187822	     -5.48388714
      0.12000000	      0.32990226	     -1.33088731	      2.44426118	     -0.70591387	      1.08349410	      1.20584850	     -2.66922547	      1.02583868	     -4.47689544	     -8.47517907	     11.83308060	     -2.02269839	     -2.05091164	     -1.24414099	     -1.23479194	    -10.36941890	     12.95542435	     -3.01684808	     -2.69831226	     -0.76699353	     -5.48422636
      0.13000000	      0.34048374	     -1.33676186	      2.41529765	     -0.70588586	      1.08348622	      1.20594263	     -2.66422948	      1.03396266	     -4.45087384	     -8.50476391	     11.85936292	     -2.03173938	     -2.04996607	     -1.25455239	     -1.28055992	    -10.40059242	     12.99074961	     -3.02062365	     -2.69637996	     -0.76674639	     -5.45609145
      0.14000000	      0.34661085	     -1.33658763	      2.40991209	     -0.70582410	      1.08348369	      1.20598558	     -2.66943191	      1.03588226	     -4.44974770	     -8.51123973	     11.85898720	     -2.03198871	     -2.05594998	     -1.25598538	     -1.27877128	    -10.40941599	     12.99029299	     -3.02047649	     -2.68187392	     -0.76962115	     -5.45675636
      0.15000000	      0.35257647	     -1.33658988	      2.40404017	     -0.70576650	      1.08347984	      1.20603488	     -2.67402293	      1.03802633	     -4.44860569	     -8.51796226	     11.85946373	     -2.03227919	     -2.06195357	     -1.25818921	     -1.27781009	    -10.41786422	     12.99059193	     -3.02040282	     -2.66789330	     -0.77308227	     -5.45720990
      0.16000000	      0.35819322	     -1.33658815	      2.39870530	     -0.70570968	      1.08347463	      1.20608186	     -2.67821222	      1.04024738	     -4.44740639	     -8.52483612	     11.86074919	     -2.03260644	     -2.06835736	     -1.26022904	     -1.27803891	    -10.42509302	     12.99161622	     -3.02039235	     -2.65362401	     -0.77594027	     -5.45756111
      0.17000000	      0.36327226	     -1.33657442	      2.39385227	     -0.70565227	      1.08346802	      1.20612795	     -2.68210545	      1.04235326	     -4.44611698	     -8.53179610	     11.86285781	     -2.03298260	     -2.07530383	     -1.26242252	     -1.27955721	    -10.43046179	     12.99336850	     -3.02044257	     -2.63865839	     -0.77820930	     -5.45828470
      0.18000000	      0.36127716	     -1.34074511	      2.37366044	     -0.70557623	      1.08344809	      1.20619681	     -2.67397063	      1.04739808	     -4.43719735	     -8.54771543	     11.88863565	     -2.03643204	     -2.08877025	     -1.26920935	     -1.30953264	    -10.41167161	     13.01487717	     -3.02075464	     -2.61322793	     -0.77361067	     -5.45976114
      0.19000000	      0.36563779	     -1.33998010	      2.37343609	     -0.70552542	      1.08344130	      1.20623309	     -2.67795784	      1.04914387	     -4.43491912	     -8.55404569	     11.88945295	     -2.03670995	     -2.09432251	     -1.27032874	     -1.31004690	    -10.41725198	     13.01523085	     -3.02061808	     -2.59973343	     -0.77526365	     -5.45944644
      0.20000000	      0.36902414	     -1.33943490	      2.37216166	     -0.70547350	      1.08343588	      1.20627743	     -2.68126439	      1.05062676	     -4.43262883	     -8.56030042	     11.89109739	     -2.03709849	     -2.10017937	     -1.27268493	     -1.31152524	    -10.41992492	     13.01625920	     -3.02050124	     -2.58598415	     -0.77724449	     -5.46210420
      0.21000000	      0.36457390	     -1.34044994	      2.36700373	     -0.70541390	      1.08341945	      1.20633023	     -2.67398170	      1.05385656	     -4.42218254	     -8.57218077	     11.90650444	     -2.04009056	     -2.10833417	     -1.27648990	     -1.32631554	    -10.40131348	     13.02569559	     -3.01922938	     -2.56351543	     -0.77516806	     -5.48626659
      0.22000000	      0.36723135	     -1.33923510	      2.36786102	     -0.70536950	      1.08341398	      1.20637060	     -2.67659498	      1.05474951	     -4.42024737	     -8.57795202	     11.90780592	     -2.04055148	     -2.11239976	     -1.27810126	     -1.32637848	    -10.40482247	     13.02600293	     -3.01892571	     -2.55250208	     -0.77616932	     -5.48897247
      0.23000000	      0.36242828	     -1.33815051	      2.37049358	     -0.70533330	      1.08339821	      1.20641670	     -2.66629219	      1.05627228	     -4.41210136	     -8.59405429	     11.92270708	     -2.04449806	     -2.11260213	     -1.28021994	     -1.33138770	    -10.39703419	     13.03140205	     -3.01575767	     -2.53651006	     -0.77555539	     -5.52342727
      0.24000000	      0.36412551	     -1.33662120	      2.37186010	     -0.70528831	      1.08339452	      1.20646215	     -2.66796283	      1.05716495	     -4.41141884	     -8.59962202	     11.92416781	     -2.04508084	     -2.11514801	     -1.28180786	     -1.33051966	    -10.40098096	     13.03155058	     -3.01515153	     -2.52741610	     -0.77710539	     -5.52733793
